<?xml version="1.0" encoding="UTF-8" standalone="no"?>
<!DOCTYPE svg PUBLIC "-//W3C//DTD SVG 1.1//EN"
 "http://www.w3.org/Graphics/SVG/1.1/DTD/svg11.dtd">
<!-- Generated by graphviz version 2.42.4 (0)
 -->
<!-- Title: G Pages: 1 -->
<svg width="597pt" height="714pt"
 viewBox="0.00 0.00 597.20 714.20" xmlns="http://www.w3.org/2000/svg" xmlns:xlink="http://www.w3.org/1999/xlink">
<g id="graph0" class="graph" transform="scale(1 1) rotate(0) translate(21.6 692.6)">
<title>G</title>
<polygon fill="white" stroke="transparent" points="-21.6,21.6 -21.6,-692.6 575.6,-692.6 575.6,21.6 -21.6,21.6"/>
<text text-anchor="middle" x="277" y="-649.4" font-family="Arial" font-size="22.00" fill="#102a43">Decision Support Platform — How to Read This Project</text>
<!-- start -->
<g id="node1" class="node">
<title>start</title>
<path fill="#ddebff" stroke="#245b8a" stroke-width="1.8" d="M367.5,-639C367.5,-639 186.5,-639 186.5,-639 180.5,-639 174.5,-633 174.5,-627 174.5,-627 174.5,-611 174.5,-611 174.5,-605 180.5,-599 186.5,-599 186.5,-599 367.5,-599 367.5,-599 373.5,-599 379.5,-605 379.5,-611 379.5,-611 379.5,-627 379.5,-627 379.5,-633 373.5,-639 367.5,-639"/>
<text text-anchor="middle" x="277" y="-622.6" font-family="Arial" font-size="10.50" fill="#102a43">START HERE</text>
<text text-anchor="middle" x="277" y="-610.6" font-family="Arial" font-size="10.50" fill="#102a43">Understand the business problem first</text>
</g>
<!-- product -->
<g id="node2" class="node">
<title>product</title>
<path fill="#eaf2ff" stroke="#2f6b9a" stroke-width="1.15" d="M397.5,-562C397.5,-562 156.5,-562 156.5,-562 150.5,-562 144.5,-556 144.5,-550 144.5,-550 144.5,-522 144.5,-522 144.5,-516 150.5,-510 156.5,-510 156.5,-510 397.5,-510 397.5,-510 403.5,-510 409.5,-516 409.5,-522 409.5,-522 409.5,-550 409.5,-550 409.5,-556 403.5,-562 397.5,-562"/>
<text text-anchor="middle" x="277" y="-545.6" font-family="Arial" font-size="10.50" fill="#102a43">1. PRODUCT</text>
<text text-anchor="middle" x="277" y="-533.6" font-family="Arial" font-size="10.50" fill="#102a43">Why does the platform exist?</text>
<text text-anchor="middle" x="277" y="-521.6" font-family="Arial" font-size="10.50" fill="#102a43">Vision • problem • process • capabilities • personas</text>
</g>
<!-- start&#45;&gt;product -->
<g id="edge1" class="edge">
<title>start&#45;&gt;product</title>
<path fill="none" stroke="#829ab1" stroke-width="1.35" d="M277,-598.8C277,-590.08 277,-579.51 277,-569.6"/>
<polygon fill="#829ab1" stroke="#829ab1" stroke-width="1.35" points="279.52,-569.39 277,-562.19 274.48,-569.39 279.52,-569.39"/>
</g>
<!-- architecture -->
<g id="node3" class="node">
<title>architecture</title>
<path fill="#f1e9ff" stroke="#6d4ea2" stroke-width="1.15" d="M388.5,-473C388.5,-473 165.5,-473 165.5,-473 159.5,-473 153.5,-467 153.5,-461 153.5,-461 153.5,-433 153.5,-433 153.5,-427 159.5,-421 165.5,-421 165.5,-421 388.5,-421 388.5,-421 394.5,-421 400.5,-427 400.5,-433 400.5,-433 400.5,-461 400.5,-461 400.5,-467 394.5,-473 388.5,-473"/>
<text text-anchor="middle" x="277" y="-456.6" font-family="Arial" font-size="10.50" fill="#102a43">2. ARCHITECTURE</text>
<text text-anchor="middle" x="277" y="-444.6" font-family="Arial" font-size="10.50" fill="#102a43">How is it designed?</text>
<text text-anchor="middle" x="277" y="-432.6" font-family="Arial" font-size="10.50" fill="#102a43">Context • components • boundaries • decisions</text>
</g>
<!-- product&#45;&gt;architecture -->
<g id="edge2" class="edge">
<title>product&#45;&gt;architecture</title>
<path fill="none" stroke="#829ab1" stroke-width="1.35" d="M277,-509.84C277,-500.64 277,-490.1 277,-480.36"/>
<polygon fill="#829ab1" stroke="#829ab1" stroke-width="1.35" points="279.52,-480.31 277,-473.11 274.48,-480.31 279.52,-480.31"/>
</g>
<!-- engineering -->
<g id="node4" class="node">
<title>engineering</title>
<path fill="#fff4d6" stroke="#9a7a22" stroke-width="1.15" d="M366,-384C366,-384 188,-384 188,-384 182,-384 176,-378 176,-372 176,-372 176,-344 176,-344 176,-338 182,-332 188,-332 188,-332 366,-332 366,-332 372,-332 378,-338 378,-344 378,-344 378,-372 378,-372 378,-378 372,-384 366,-384"/>
<text text-anchor="middle" x="277" y="-367.6" font-family="Arial" font-size="10.50" fill="#102a43">3. ENGINEERING</text>
<text text-anchor="middle" x="277" y="-355.6" font-family="Arial" font-size="10.50" fill="#102a43">How is it implemented?</text>
<text text-anchor="middle" x="277" y="-343.6" font-family="Arial" font-size="10.50" fill="#102a43">APIs • rules • analytics • AI • evidence</text>
</g>
<!-- architecture&#45;&gt;engineering -->
<g id="edge3" class="edge">
<title>architecture&#45;&gt;engineering</title>
<path fill="none" stroke="#829ab1" stroke-width="1.35" d="M277,-420.84C277,-411.64 277,-401.1 277,-391.36"/>
<polygon fill="#829ab1" stroke="#829ab1" stroke-width="1.35" points="279.52,-391.31 277,-384.11 274.48,-391.31 279.52,-391.31"/>
</g>
<!-- operations -->
<g id="node5" class="node">
<title>operations</title>
<path fill="#e8f6ee" stroke="#3a7d5d" stroke-width="1.15" d="M372,-295C372,-295 182,-295 182,-295 176,-295 170,-289 170,-283 170,-283 170,-255 170,-255 170,-249 176,-243 182,-243 182,-243 372,-243 372,-243 378,-243 384,-249 384,-255 384,-255 384,-283 384,-283 384,-289 378,-295 372,-295"/>
<text text-anchor="middle" x="277" y="-278.6" font-family="Arial" font-size="10.50" fill="#102a43">4. OPERATIONS</text>
<text text-anchor="middle" x="277" y="-266.6" font-family="Arial" font-size="10.50" fill="#102a43">How is it run?</text>
<text text-anchor="middle" x="277" y="-254.6" font-family="Arial" font-size="10.50" fill="#102a43">CI/CD • observability • security • support</text>
</g>
<!-- engineering&#45;&gt;operations -->
<g id="edge4" class="edge">
<title>engineering&#45;&gt;operations</title>
<path fill="none" stroke="#829ab1" stroke-width="1.35" d="M277,-331.84C277,-322.64 277,-312.1 277,-302.36"/>
<polygon fill="#829ab1" stroke="#829ab1" stroke-width="1.35" points="279.52,-302.31 277,-295.11 274.48,-302.31 279.52,-302.31"/>
</g>
<!-- quality -->
<g id="node6" class="node">
<title>quality</title>
<path fill="#e6f7f7" stroke="#367d80" stroke-width="1.15" d="M382.5,-206C382.5,-206 171.5,-206 171.5,-206 165.5,-206 159.5,-200 159.5,-194 159.5,-194 159.5,-166 159.5,-166 159.5,-160 165.5,-154 171.5,-154 171.5,-154 382.5,-154 382.5,-154 388.5,-154 394.5,-160 394.5,-166 394.5,-166 394.5,-194 394.5,-194 394.5,-200 388.5,-206 382.5,-206"/>
<text text-anchor="middle" x="277" y="-189.6" font-family="Arial" font-size="10.50" fill="#102a43">5. QUALITY &amp; GOVERNANCE</text>
<text text-anchor="middle" x="277" y="-177.6" font-family="Arial" font-size="10.50" fill="#102a43">How is trust maintained?</text>
<text text-anchor="middle" x="277" y="-165.6" font-family="Arial" font-size="10.50" fill="#102a43">Tests • evidence • review • audit • monitoring</text>
</g>
<!-- operations&#45;&gt;quality -->
<g id="edge5" class="edge">
<title>operations&#45;&gt;quality</title>
<path fill="none" stroke="#829ab1" stroke-width="1.35" d="M277,-242.84C277,-233.64 277,-223.1 277,-213.36"/>
<polygon fill="#829ab1" stroke="#829ab1" stroke-width="1.35" points="279.52,-213.31 277,-206.11 274.48,-213.31 279.52,-213.31"/>
</g>
<!-- finish -->
<g id="node7" class="node">
<title>finish</title>
<path fill="#e6f4ea" stroke="#357a4a" stroke-width="1.8" d="M363,-117C363,-117 191,-117 191,-117 185,-117 179,-111 179,-105 179,-105 179,-89 179,-89 179,-83 185,-77 191,-77 191,-77 363,-77 363,-77 369,-77 375,-83 375,-89 375,-89 375,-105 375,-105 375,-111 369,-117 363,-117"/>
<text text-anchor="middle" x="277" y="-100.6" font-family="Arial" font-size="10.50" fill="#102a43">END WITH THE IMPLEMENTATION</text>
<text text-anchor="middle" x="277" y="-88.6" font-family="Arial" font-size="10.50" fill="#102a43">and reproducible evidence</text>
</g>
<!-- quality&#45;&gt;finish -->
<g id="edge6" class="edge">
<title>quality&#45;&gt;finish</title>
<path fill="none" stroke="#829ab1" stroke-width="1.35" d="M277,-153.82C277,-144.51 277,-133.93 277,-124.51"/>
<polygon fill="#829ab1" stroke="#829ab1" stroke-width="1.35" points="279.52,-124.45 277,-117.25 274.48,-124.45 279.52,-124.45"/>
</g>
<!-- note -->
<g id="node8" class="node">
<title>note</title>
<polygon fill="#fff8e8" stroke="#a67c2d" stroke-width="1.15" points="510,-40 38,-40 38,0 516,0 516,-34 510,-40"/>
<polyline fill="none" stroke="#a67c2d" stroke-width="1.15" points="510,-40 510,-34 "/>
<polyline fill="none" stroke="#a67c2d" stroke-width="1.15" points="516,-34 510,-34 "/>
<text text-anchor="middle" x="277" y="-23.6" font-family="Arial" font-size="10.50" fill="#102a43">Different audiences can stop at different levels.</text>
<text text-anchor="middle" x="277" y="-11.6" font-family="Arial" font-size="10.50" fill="#102a43">Executives may focus on Product; engineers can continue into Architecture and implementation.</text>
</g>
<!-- finish&#45;&gt;note -->
<g id="edge7" class="edge">
<title>finish&#45;&gt;note</title>
<path fill="none" stroke="#829ab1" stroke-width="1.35" stroke-dasharray="5,2" d="M277,-76.69C277,-65.49 277,-51.44 277,-40.25"/>
</g>
</g>
</svg>
