<?xml version="1.0" encoding="UTF-8" standalone="no"?>
<!DOCTYPE svg PUBLIC "-//W3C//DTD SVG 1.1//EN"
 "http://www.w3.org/Graphics/SVG/1.1/DTD/svg11.dtd">
<!-- Generated by graphviz version 2.42.4 (0)
 -->
<!-- Title: ExecutiveOverview Pages: 1 -->
<svg width="705pt" height="604pt"
 viewBox="0.00 0.00 704.82 604.32" xmlns="http://www.w3.org/2000/svg" xmlns:xlink="http://www.w3.org/1999/xlink">
<g id="graph0" class="graph" transform="scale(1 1) rotate(0) translate(20.16 584.16)">
<title>ExecutiveOverview</title>
<polygon fill="white" stroke="transparent" points="-20.16,20.16 -20.16,-584.16 684.66,-584.16 684.66,20.16 -20.16,20.16"/>
<text text-anchor="middle" x="332.25" y="-540.8" font-family="Arial" font-size="24.00" fill="#102a43">Decision Support Platform — Executive Overview</text>
<!-- problem -->
<g id="node1" class="node">
<title>problem</title>
<path fill="#eaf2ff" stroke="#2f6b9a" stroke-width="1.6" d="M413,-530C413,-530 182,-530 182,-530 176,-530 170,-524 170,-518 170,-518 170,-492 170,-492 170,-486 176,-480 182,-480 182,-480 413,-480 413,-480 419,-480 425,-486 425,-492 425,-492 425,-518 425,-518 425,-524 419,-530 413,-530"/>
<text text-anchor="middle" x="297.5" y="-514.2" font-family="Arial" font-size="11.00" fill="#102a43">BUSINESS NEED</text>
<text text-anchor="middle" x="297.5" y="-502.2" font-family="Arial" font-size="11.00" fill="#102a43">A high&#45;impact operational decision must be made</text>
<text text-anchor="middle" x="297.5" y="-490.2" font-family="Arial" font-size="11.00" fill="#102a43">with confidence, consistency, and accountability</text>
</g>
<!-- platform -->
<g id="node2" class="node">
<title>platform</title>
<path fill="#ddebff" stroke="#245b8a" stroke-width="2" d="M422,-450C422,-450 173,-450 173,-450 167,-450 161,-444 161,-438 161,-438 161,-412 161,-412 161,-406 167,-400 173,-400 173,-400 422,-400 422,-400 428,-400 434,-406 434,-412 434,-412 434,-438 434,-438 434,-444 428,-450 422,-450"/>
<text text-anchor="middle" x="297.5" y="-434.2" font-family="Arial" font-size="11.00" fill="#102a43">DECISION SUPPORT PLATFORM</text>
<text text-anchor="middle" x="297.5" y="-422.2" font-family="Arial" font-size="11.00" fill="#102a43">Coordinates policy, analysis, AI assistance, evidence,</text>
<text text-anchor="middle" x="297.5" y="-410.2" font-family="Arial" font-size="11.00" fill="#102a43">and human oversight around the decision</text>
</g>
<!-- problem&#45;&gt;platform -->
<g id="edge1" class="edge">
<title>problem&#45;&gt;platform</title>
<path fill="none" stroke="#829ab1" stroke-width="1.5" d="M297.5,-479.69C297.5,-479.69 297.5,-457.65 297.5,-457.65"/>
<polygon fill="#829ab1" stroke="#829ab1" stroke-width="1.5" points="300.13,-457.65 297.5,-450.15 294.88,-457.65 300.13,-457.65"/>
</g>
<!-- rules -->
<g id="node3" class="node">
<title>rules</title>
<path fill="#e8f6ee" stroke="#3a7d5d" stroke-width="1.2" d="M105,-370C105,-370 12,-370 12,-370 6,-370 0,-364 0,-358 0,-358 0,-332 0,-332 0,-326 6,-320 12,-320 12,-320 105,-320 105,-320 111,-320 117,-326 117,-332 117,-332 117,-358 117,-358 117,-364 111,-370 105,-370"/>
<text text-anchor="middle" x="58.5" y="-354.2" font-family="Arial" font-size="11.00" fill="#102a43">Business Rules</text>
<text text-anchor="middle" x="58.5" y="-342.2" font-family="Arial" font-size="11.00" fill="#102a43">Deterministic policy</text>
<text text-anchor="middle" x="58.5" y="-330.2" font-family="Arial" font-size="11.00" fill="#102a43">and eligibility checks</text>
</g>
<!-- platform&#45;&gt;rules -->
<g id="edge2" class="edge">
<title>platform&#45;&gt;rules</title>
<path fill="none" stroke="#829ab1" stroke-width="1.5" d="M160.9,-425C107.36,-425 58.5,-425 58.5,-425 58.5,-425 58.5,-377.81 58.5,-377.81"/>
<polygon fill="#829ab1" stroke="#829ab1" stroke-width="1.5" points="61.13,-377.81 58.5,-370.31 55.88,-377.81 61.13,-377.81"/>
</g>
<!-- analytics -->
<g id="node4" class="node">
<title>analytics</title>
<path fill="#fff4d6" stroke="#9a7a22" stroke-width="1.2" d="M264.5,-370C264.5,-370 152.5,-370 152.5,-370 146.5,-370 140.5,-364 140.5,-358 140.5,-358 140.5,-332 140.5,-332 140.5,-326 146.5,-320 152.5,-320 152.5,-320 264.5,-320 264.5,-320 270.5,-320 276.5,-326 276.5,-332 276.5,-332 276.5,-358 276.5,-358 276.5,-364 270.5,-370 264.5,-370"/>
<text text-anchor="middle" x="208.5" y="-354.2" font-family="Arial" font-size="11.00" fill="#102a43">Analytics &amp; Models</text>
<text text-anchor="middle" x="208.5" y="-342.2" font-family="Arial" font-size="11.00" fill="#102a43">Risk scoring, statistics,</text>
<text text-anchor="middle" x="208.5" y="-330.2" font-family="Arial" font-size="11.00" fill="#102a43">quality and performance</text>
</g>
<!-- platform&#45;&gt;analytics -->
<g id="edge3" class="edge">
<title>platform&#45;&gt;analytics</title>
<path fill="none" stroke="#829ab1" stroke-width="1.5" d="M218.75,-399.69C218.75,-399.69 218.75,-377.65 218.75,-377.65"/>
<polygon fill="#829ab1" stroke="#829ab1" stroke-width="1.5" points="221.38,-377.65 218.75,-370.15 216.13,-377.65 221.38,-377.65"/>
</g>
<!-- ai -->
<g id="node5" class="node">
<title>ai</title>
<path fill="#f1e9ff" stroke="#6d4ea2" stroke-width="1.2" d="M461.5,-370C461.5,-370 311.5,-370 311.5,-370 305.5,-370 299.5,-364 299.5,-358 299.5,-358 299.5,-332 299.5,-332 299.5,-326 305.5,-320 311.5,-320 311.5,-320 461.5,-320 461.5,-320 467.5,-320 473.5,-326 473.5,-332 473.5,-332 473.5,-358 473.5,-358 473.5,-364 467.5,-370 461.5,-370"/>
<text text-anchor="middle" x="386.5" y="-354.2" font-family="Arial" font-size="11.00" fill="#102a43">AI Assistance</text>
<text text-anchor="middle" x="386.5" y="-342.2" font-family="Arial" font-size="11.00" fill="#102a43">Recommendation, classification,</text>
<text text-anchor="middle" x="386.5" y="-330.2" font-family="Arial" font-size="11.00" fill="#102a43">extraction and explanation</text>
</g>
<!-- platform&#45;&gt;ai -->
<g id="edge4" class="edge">
<title>platform&#45;&gt;ai</title>
<path fill="none" stroke="#829ab1" stroke-width="1.5" d="M366.75,-399.69C366.75,-399.69 366.75,-377.65 366.75,-377.65"/>
<polygon fill="#829ab1" stroke="#829ab1" stroke-width="1.5" points="369.38,-377.65 366.75,-370.15 364.13,-377.65 369.38,-377.65"/>
</g>
<!-- human -->
<g id="node6" class="node">
<title>human</title>
<path fill="#e6f7f7" stroke="#367d80" stroke-width="1.2" d="M652.5,-370C652.5,-370 508.5,-370 508.5,-370 502.5,-370 496.5,-364 496.5,-358 496.5,-358 496.5,-332 496.5,-332 496.5,-326 502.5,-320 508.5,-320 508.5,-320 652.5,-320 652.5,-320 658.5,-320 664.5,-326 664.5,-332 664.5,-332 664.5,-358 664.5,-358 664.5,-364 658.5,-370 652.5,-370"/>
<text text-anchor="middle" x="580.5" y="-354.2" font-family="Arial" font-size="11.00" fill="#102a43">Human Review</text>
<text text-anchor="middle" x="580.5" y="-342.2" font-family="Arial" font-size="11.00" fill="#102a43">Accountable approval,</text>
<text text-anchor="middle" x="580.5" y="-330.2" font-family="Arial" font-size="11.00" fill="#102a43">referral and exception handling</text>
</g>
<!-- platform&#45;&gt;human -->
<g id="edge5" class="edge">
<title>platform&#45;&gt;human</title>
<path fill="none" stroke="#829ab1" stroke-width="1.5" d="M434.03,-425C506.39,-425 580.5,-425 580.5,-425 580.5,-425 580.5,-377.81 580.5,-377.81"/>
<polygon fill="#829ab1" stroke="#829ab1" stroke-width="1.5" points="583.13,-377.81 580.5,-370.31 577.88,-377.81 583.13,-377.81"/>
</g>
<!-- evidence -->
<g id="node7" class="node">
<title>evidence</title>
<path fill="#e8f4fa" stroke="#347c98" stroke-width="1.5" d="M405,-290C405,-290 190,-290 190,-290 184,-290 178,-284 178,-278 178,-278 178,-252 178,-252 178,-246 184,-240 190,-240 190,-240 405,-240 405,-240 411,-240 417,-246 417,-252 417,-252 417,-278 417,-278 417,-284 411,-290 405,-290"/>
<text text-anchor="middle" x="297.5" y="-274.2" font-family="Arial" font-size="11.00" fill="#102a43">EVIDENCE &amp; EXPLANATION</text>
<text text-anchor="middle" x="297.5" y="-262.2" font-family="Arial" font-size="11.00" fill="#102a43">Preserve inputs, rules, scores, model outputs,</text>
<text text-anchor="middle" x="297.5" y="-250.2" font-family="Arial" font-size="11.00" fill="#102a43">reasons, artifacts and limitations</text>
</g>
<!-- rules&#45;&gt;evidence -->
<g id="edge6" class="edge">
<title>rules&#45;&gt;evidence</title>
<path fill="none" stroke="#829ab1" stroke-width="1.5" d="M62,-319.69C62,-296.25 62,-265 62,-265 62,-265 170.18,-265 170.18,-265"/>
<polygon fill="#829ab1" stroke="#829ab1" stroke-width="1.5" points="170.18,-267.63 177.68,-265 170.18,-262.38 170.18,-267.63"/>
</g>
<!-- analytics&#45;&gt;evidence -->
<g id="edge7" class="edge">
<title>analytics&#45;&gt;evidence</title>
<path fill="none" stroke="#829ab1" stroke-width="1.5" d="M227.25,-319.69C227.25,-319.69 227.25,-297.65 227.25,-297.65"/>
<polygon fill="#829ab1" stroke="#829ab1" stroke-width="1.5" points="229.88,-297.65 227.25,-290.15 224.63,-297.65 229.88,-297.65"/>
</g>
<!-- ai&#45;&gt;evidence -->
<g id="edge8" class="edge">
<title>ai&#45;&gt;evidence</title>
<path fill="none" stroke="#829ab1" stroke-width="1.5" d="M358.25,-319.69C358.25,-319.69 358.25,-297.65 358.25,-297.65"/>
<polygon fill="#829ab1" stroke="#829ab1" stroke-width="1.5" points="360.88,-297.65 358.25,-290.15 355.63,-297.65 360.88,-297.65"/>
</g>
<!-- human&#45;&gt;evidence -->
<g id="edge9" class="edge">
<title>human&#45;&gt;evidence</title>
<path fill="none" stroke="#829ab1" stroke-width="1.5" d="M560.25,-319.69C560.25,-296.25 560.25,-265 560.25,-265 560.25,-265 424.84,-265 424.84,-265"/>
<polygon fill="#829ab1" stroke="#829ab1" stroke-width="1.5" points="424.84,-262.38 417.34,-265 424.84,-267.63 424.84,-262.38"/>
</g>
<!-- governance -->
<g id="node8" class="node">
<title>governance</title>
<path fill="#f7eef8" stroke="#815487" stroke-width="1.5" d="M407,-210C407,-210 188,-210 188,-210 182,-210 176,-204 176,-198 176,-198 176,-172 176,-172 176,-166 182,-160 188,-160 188,-160 407,-160 407,-160 413,-160 419,-166 419,-172 419,-172 419,-198 419,-198 419,-204 413,-210 407,-210"/>
<text text-anchor="middle" x="297.5" y="-194.2" font-family="Arial" font-size="11.00" fill="#102a43">GOVERNANCE &amp; TRACEABILITY</text>
<text text-anchor="middle" x="297.5" y="-182.2" font-family="Arial" font-size="11.00" fill="#102a43">Record decisions, approvals, versions, access,</text>
<text text-anchor="middle" x="297.5" y="-170.2" font-family="Arial" font-size="11.00" fill="#102a43">responsibilities and audit history</text>
</g>
<!-- evidence&#45;&gt;governance -->
<g id="edge10" class="edge">
<title>evidence&#45;&gt;governance</title>
<path fill="none" stroke="#829ab1" stroke-width="1.5" d="M297.5,-239.69C297.5,-239.69 297.5,-217.65 297.5,-217.65"/>
<polygon fill="#829ab1" stroke="#829ab1" stroke-width="1.5" points="300.13,-217.65 297.5,-210.15 294.88,-217.65 300.13,-217.65"/>
</g>
<!-- outcome -->
<g id="node9" class="node">
<title>outcome</title>
<path fill="#e6f4ea" stroke="#357a4a" stroke-width="2" d="M414,-130C414,-130 181,-130 181,-130 175,-130 169,-124 169,-118 169,-118 169,-92 169,-92 169,-86 175,-80 181,-80 181,-80 414,-80 414,-80 420,-80 426,-86 426,-92 426,-92 426,-118 426,-118 426,-124 420,-130 414,-130"/>
<text text-anchor="middle" x="297.5" y="-114.2" font-family="Arial" font-size="11.00" fill="#102a43">TRUSTWORTHY OPERATIONAL DECISION</text>
<text text-anchor="middle" x="297.5" y="-102.2" font-family="Arial" font-size="11.00" fill="#102a43">Better decision quality • Lower risk • Explainability</text>
<text text-anchor="middle" x="297.5" y="-90.2" font-family="Arial" font-size="11.00" fill="#102a43">Audit readiness • Continuous improvement</text>
</g>
<!-- governance&#45;&gt;outcome -->
<g id="edge11" class="edge">
<title>governance&#45;&gt;outcome</title>
<path fill="none" stroke="#829ab1" stroke-width="1.5" d="M297.5,-159.69C297.5,-159.69 297.5,-137.65 297.5,-137.65"/>
<polygon fill="#829ab1" stroke="#829ab1" stroke-width="1.5" points="300.13,-137.65 297.5,-130.15 294.88,-137.65 300.13,-137.65"/>
</g>
<!-- current -->
<g id="node10" class="node">
<title>current</title>
<path fill="#f6f8fa" stroke="#66788a" stroke-width="1.2" d="M256,-50C256,-50 19,-50 19,-50 13,-50 7,-44 7,-38 7,-38 7,-12 7,-12 7,-6 13,0 19,0 19,0 256,0 256,0 262,0 268,-6 268,-12 268,-12 268,-38 268,-38 268,-44 262,-50 256,-50"/>
<text text-anchor="middle" x="137.5" y="-34.2" font-family="Arial" font-size="11.00" fill="#102a43">CURRENT FOUNDATION</text>
<text text-anchor="middle" x="137.5" y="-22.2" font-family="Arial" font-size="11.00" fill="#102a43">FastAPI • pandas profiling • threshold findings</text>
<text text-anchor="middle" x="137.5" y="-10.2" font-family="Arial" font-size="11.00" fill="#102a43">Pydantic contracts • tests • CI/CD • documentation</text>
</g>
<!-- outcome&#45;&gt;current -->
<g id="edge12" class="edge">
<title>outcome&#45;&gt;current</title>
<path fill="none" stroke="#aab7c4" stroke-width="1.5" stroke-dasharray="5,2" d="M218.5,-79.69C218.5,-70.26 218.5,-59.56 218.5,-50.15"/>
</g>
<!-- planned -->
<g id="node11" class="node">
<title>planned</title>
<path fill="#fff8e8" stroke="#a67c2d" stroke-width="1.2" d="M612,-50C612,-50 303,-50 303,-50 297,-50 291,-44 291,-38 291,-38 291,-12 291,-12 291,-6 297,0 303,0 303,0 612,0 612,0 618,0 624,-6 624,-12 624,-12 624,-38 624,-38 624,-44 618,-50 612,-50"/>
<text text-anchor="middle" x="457.5" y="-34.2" font-family="Arial" font-size="11.00" fill="#102a43">PLANNED ENTERPRISE EVOLUTION</text>
<text text-anchor="middle" x="457.5" y="-22.2" font-family="Arial" font-size="11.00" fill="#102a43">PostgreSQL • AWS/SageMaker/S3 • Power BI • Power Automate</text>
<text text-anchor="middle" x="457.5" y="-10.2" font-family="Arial" font-size="11.00" fill="#102a43">SharePoint • ServiceNow • JIRA • observability • AI agents</text>
</g>
<!-- outcome&#45;&gt;planned -->
<g id="edge13" class="edge">
<title>outcome&#45;&gt;planned</title>
<path fill="none" stroke="#aab7c4" stroke-width="1.5" stroke-dasharray="5,2" d="M358.5,-79.69C358.5,-70.26 358.5,-59.56 358.5,-50.15"/>
</g>
<!-- current&#45;&gt;planned -->
</g>
</svg>
