<?xml version="1.0" encoding="UTF-8" standalone="no"?>
<!DOCTYPE svg PUBLIC "-//W3C//DTD SVG 1.1//EN"
 "http://www.w3.org/Graphics/SVG/1.1/DTD/svg11.dtd">
<!-- Generated by graphviz version 2.42.4 (0)
 -->
<!-- Title: G Pages: 1 -->
<svg width="1567pt" height="292pt"
 viewBox="0.00 0.00 1567.40 292.40" xmlns="http://www.w3.org/2000/svg" xmlns:xlink="http://www.w3.org/1999/xlink">
<g id="graph0" class="graph" transform="scale(1 1) rotate(0) translate(25.2 267.2)">
<title>G</title>
<polygon fill="white" stroke="transparent" points="-25.2,25.2 -25.2,-267.2 1542.2,-267.2 1542.2,25.2 -25.2,25.2"/>
<text text-anchor="start" x="8" y="-224.6" font-family="Arial" font-weight="bold" font-size="18.00">DWS AI Validation Studio — Milestone 0 System Context</text>
<g id="clust1" class="cluster">
<title>cluster_app</title>
<path fill="white" stroke="#9fb3c8" stroke-dasharray="5,2" d="M289,-41C289,-41 1268,-41 1268,-41 1274,-41 1280,-47 1280,-53 1280,-53 1280,-194 1280,-194 1280,-200 1274,-206 1268,-206 1268,-206 289,-206 289,-206 283,-206 277,-200 277,-194 277,-194 277,-53 277,-53 277,-47 283,-41 289,-41"/>
<text text-anchor="middle" x="373.5" y="-192.4" font-family="Arial" font-size="12.00">Milestone 0 application boundary</text>
</g>
<!-- client -->
<g id="node1" class="node">
<title>client</title>
<path fill="#d9eaf7" stroke="#345995" stroke-width="1.3" d="M1505,-45C1505,-45 1422,-45 1422,-45 1416,-45 1410,-39 1410,-33 1410,-33 1410,-21 1410,-21 1410,-15 1416,-9 1422,-9 1422,-9 1505,-9 1505,-9 1511,-9 1517,-15 1517,-21 1517,-21 1517,-33 1517,-33 1517,-39 1511,-45 1505,-45"/>
<text text-anchor="middle" x="1463.5" y="-24.2" font-family="Arial" font-size="11.00" fill="#102a43">User / API Client</text>
</g>
<!-- api -->
<g id="node2" class="node">
<title>api</title>
<path fill="#e8f1fb" stroke="#345995" stroke-width="1.3" d="M495,-102C495,-102 297,-102 297,-102 291,-102 285,-96 285,-90 285,-90 285,-72 285,-72 285,-66 291,-60 297,-60 297,-60 495,-60 495,-60 501,-60 507,-66 507,-72 507,-72 507,-90 507,-90 507,-96 501,-102 495,-102"/>
<text text-anchor="middle" x="396" y="-84.2" font-family="Arial" font-size="11.00" fill="#102a43">FastAPI transport layer</text>
<text text-anchor="middle" x="396" y="-72.2" font-family="Arial" font-size="11.00" fill="#102a43">Upload handling • HTTP errors • cleanup</text>
</g>
<!-- client&#45;&gt;api -->
<g id="edge5" class="edge">
<title>client&#45;&gt;api</title>
<path fill="none" stroke="#486581" stroke-width="1.4" d="M1409.8,-18.94C1353.16,-10.98 1260.43,0 1180,0 742.5,0 742.5,0 742.5,0 641.15,0 527.39,-33.45 459.01,-57.36"/>
<polygon fill="#486581" stroke="#486581" stroke-width="1.4" points="457.92,-54.96 451.72,-59.93 459.67,-59.91 457.92,-54.96"/>
<text text-anchor="middle" x="966.5" y="-2.8" font-family="Arial" font-size="9.00" fill="#334e68">multipart CSV upload</text>
</g>
<!-- profiler -->
<g id="node3" class="node">
<title>profiler</title>
<path fill="#e6f4ea" stroke="#2e7d32" stroke-width="1.3" d="M835,-103C835,-103 652,-103 652,-103 646,-103 640,-97 640,-91 640,-91 640,-61 640,-61 640,-55 646,-49 652,-49 652,-49 835,-49 835,-49 841,-49 847,-55 847,-61 847,-61 847,-91 847,-91 847,-97 841,-103 835,-103"/>
<text text-anchor="middle" x="743.5" y="-85.2" font-family="Arial" font-size="11.00" fill="#102a43">Core dataset profiler</text>
<text text-anchor="middle" x="743.5" y="-73.2" font-family="Arial" font-size="11.00" fill="#102a43">Rows • columns • inferred types</text>
<text text-anchor="middle" x="743.5" y="-61.2" font-family="Arial" font-size="11.00" fill="#102a43">missingness • uniqueness • duplicates</text>
</g>
<!-- api&#45;&gt;profiler -->
<g id="edge1" class="edge">
<title>api&#45;&gt;profiler</title>
<path fill="none" stroke="#486581" stroke-width="1.4" d="M507.27,-79.4C547.07,-78.83 592,-78.18 631.83,-77.6"/>
<polygon fill="#486581" stroke="#486581" stroke-width="1.4" points="632.27,-80.22 639.73,-77.49 632.19,-74.97 632.27,-80.22"/>
<text text-anchor="middle" x="573.5" y="-80.8" font-family="Arial" font-size="9.00" fill="#334e68">temporary local CSV</text>
</g>
<!-- cleanup -->
<g id="node6" class="node">
<title>cleanup</title>
<path fill="#fdecec" stroke="#c62828" stroke-width="1.3" d="M806,-177C806,-177 681,-177 681,-177 675,-177 669,-171 669,-165 669,-165 669,-147 669,-147 669,-141 675,-135 681,-135 681,-135 806,-135 806,-135 812,-135 818,-141 818,-147 818,-147 818,-165 818,-165 818,-171 812,-177 806,-177"/>
<text text-anchor="middle" x="743.5" y="-159.2" font-family="Arial" font-size="11.00" fill="#102a43">Temporary&#45;file cleanup</text>
<text text-anchor="middle" x="743.5" y="-147.2" font-family="Arial" font-size="11.00" fill="#102a43">Always executed in finally</text>
</g>
<!-- api&#45;&gt;cleanup -->
<g id="edge4" class="edge">
<title>api&#45;&gt;cleanup</title>
<path fill="none" stroke="#486581" stroke-width="1.4" stroke-dasharray="5,2" d="M494.16,-102.09C546.84,-113.53 611.21,-127.5 661.21,-138.35"/>
<polygon fill="#486581" stroke="#486581" stroke-width="1.4" points="660.91,-140.97 668.79,-140 662.02,-135.84 660.91,-140.97"/>
</g>
<!-- rules -->
<g id="node4" class="node">
<title>rules</title>
<path fill="#fff3e0" stroke="#e07a00" stroke-width="1.3" d="M1025,-103C1025,-103 908,-103 908,-103 902,-103 896,-97 896,-91 896,-91 896,-61 896,-61 896,-55 902,-49 908,-49 908,-49 1025,-49 1025,-49 1031,-49 1037,-55 1037,-61 1037,-61 1037,-91 1037,-91 1037,-97 1031,-103 1025,-103"/>
<text text-anchor="middle" x="966.5" y="-85.2" font-family="Arial" font-size="11.00" fill="#102a43">Rule evaluation</text>
<text text-anchor="middle" x="966.5" y="-73.2" font-family="Arial" font-size="11.00" fill="#102a43">Missing&#45;value threshold</text>
<text text-anchor="middle" x="966.5" y="-61.2" font-family="Arial" font-size="11.00" fill="#102a43">Duplicate&#45;row threshold</text>
</g>
<!-- profiler&#45;&gt;rules -->
<g id="edge2" class="edge">
<title>profiler&#45;&gt;rules</title>
<path fill="none" stroke="#486581" stroke-width="1.4" d="M847.24,-76C860.99,-76 874.91,-76 888.13,-76"/>
<polygon fill="#486581" stroke="#486581" stroke-width="1.4" points="888.33,-78.63 895.83,-76 888.33,-73.38 888.33,-78.63"/>
</g>
<!-- contracts -->
<g id="node5" class="node">
<title>contracts</title>
<path fill="#f3e8ff" stroke="#7b2cbf" stroke-width="1.3" d="M1260,-103C1260,-103 1098,-103 1098,-103 1092,-103 1086,-97 1086,-91 1086,-91 1086,-61 1086,-61 1086,-55 1092,-49 1098,-49 1098,-49 1260,-49 1260,-49 1266,-49 1272,-55 1272,-61 1272,-61 1272,-91 1272,-91 1272,-97 1266,-103 1260,-103"/>
<text text-anchor="middle" x="1179" y="-85.2" font-family="Arial" font-size="11.00" fill="#102a43">Pydantic contracts</text>
<text text-anchor="middle" x="1179" y="-73.2" font-family="Arial" font-size="11.00" fill="#102a43">Typed findings and dataset report</text>
<text text-anchor="middle" x="1179" y="-61.2" font-family="Arial" font-size="11.00" fill="#102a43">OpenAPI schema</text>
</g>
<!-- rules&#45;&gt;contracts -->
<g id="edge3" class="edge">
<title>rules&#45;&gt;contracts</title>
<path fill="none" stroke="#486581" stroke-width="1.4" d="M1037.01,-76C1050.14,-76 1064.12,-76 1077.98,-76"/>
<polygon fill="#486581" stroke="#486581" stroke-width="1.4" points="1078.16,-78.63 1085.66,-76 1078.16,-73.38 1078.16,-78.63"/>
</g>
<!-- contracts&#45;&gt;client -->
<g id="edge6" class="edge">
<title>contracts&#45;&gt;client</title>
<path fill="none" stroke="#486581" stroke-width="1.4" d="M1272.11,-60.02C1314.83,-52.61 1364.4,-44.02 1402.25,-37.45"/>
<polygon fill="#486581" stroke="#486581" stroke-width="1.4" points="1402.71,-40.03 1409.66,-36.17 1401.82,-34.86 1402.71,-40.03"/>
<text text-anchor="middle" x="1341" y="-56.8" font-family="Arial" font-size="9.00" fill="#334e68">typed JSON response</text>
</g>
<!-- notes -->
<g id="node7" class="node">
<title>notes</title>
<polygon fill="#fff8e1" stroke="#b7791f" stroke-width="1.3" points="230,-108 0,-108 0,-54 236,-54 236,-102 230,-108"/>
<polyline fill="none" stroke="#b7791f" stroke-width="1.3" points="230,-108 230,-102 "/>
<polyline fill="none" stroke="#b7791f" stroke-width="1.3" points="236,-102 230,-102 "/>
<text text-anchor="middle" x="118" y="-90.2" font-family="Arial" font-size="11.00" fill="#102a43">Not implemented in M0</text>
<text text-anchor="middle" x="118" y="-78.2" font-family="Arial" font-size="11.00" fill="#102a43">Authentication • persistence • malware scan</text>
<text text-anchor="middle" x="118" y="-66.2" font-family="Arial" font-size="11.00" fill="#102a43">object storage • background jobs</text>
</g>
<!-- notes&#45;&gt;api -->
<g id="edge7" class="edge">
<title>notes&#45;&gt;api</title>
<path fill="none" stroke="#486581" stroke-width="1.4" stroke-dasharray="5,2" d="M236.05,-81C252.21,-81 268.76,-81 284.8,-81"/>
</g>
</g>
</svg>
