<?xml version="1.0" encoding="UTF-8" standalone="no"?>
<!DOCTYPE svg PUBLIC "-//W3C//DTD SVG 1.1//EN"
 "http://www.w3.org/Graphics/SVG/1.1/DTD/svg11.dtd">
<!-- Generated by graphviz version 2.42.4 (0)
 -->
<!-- Title: G Pages: 1 -->
<svg width="1236pt" height="751pt"
 viewBox="0.00 0.00 1236.20 751.20" xmlns="http://www.w3.org/2000/svg" xmlns:xlink="http://www.w3.org/1999/xlink">
<g id="graph0" class="graph" transform="scale(1 1) rotate(0) translate(21.6 729.6)">
<title>G</title>
<polygon fill="white" stroke="transparent" points="-21.6,21.6 -21.6,-729.6 1214.6,-729.6 1214.6,21.6 -21.6,21.6"/>
<text text-anchor="middle" x="596.5" y="-686.4" font-family="Arial" font-size="22.00" fill="#102a43">Decision Support Platform — Target Enterprise Architecture (Planned)</text>
<!-- users -->
<g id="node1" class="node">
<title>users</title>
<path fill="#eaf2ff" stroke="#2f6b9a" stroke-width="1.15" d="M762.5,-676C762.5,-676 509.5,-676 509.5,-676 503.5,-676 497.5,-670 497.5,-664 497.5,-664 497.5,-648 497.5,-648 497.5,-642 503.5,-636 509.5,-636 509.5,-636 762.5,-636 762.5,-636 768.5,-636 774.5,-642 774.5,-648 774.5,-648 774.5,-664 774.5,-664 774.5,-670 768.5,-676 762.5,-676"/>
<text text-anchor="middle" x="636" y="-659.6" font-family="Arial" font-size="10.50" fill="#102a43">Users &amp; Channels</text>
<text text-anchor="middle" x="636" y="-647.6" font-family="Arial" font-size="10.50" fill="#102a43">Executives • analysts • reviewers • APIs • dashboards</text>
</g>
<!-- experience -->
<g id="node2" class="node">
<title>experience</title>
<path fill="#ddebff" stroke="#245b8a" stroke-width="1.15" d="M720.5,-600C720.5,-600 551.5,-600 551.5,-600 545.5,-600 539.5,-594 539.5,-588 539.5,-588 539.5,-572 539.5,-572 539.5,-566 545.5,-560 551.5,-560 551.5,-560 720.5,-560 720.5,-560 726.5,-560 732.5,-566 732.5,-572 732.5,-572 732.5,-588 732.5,-588 732.5,-594 726.5,-600 720.5,-600"/>
<text text-anchor="middle" x="636" y="-583.6" font-family="Arial" font-size="10.50" fill="#102a43">API / Experience Layer</text>
<text text-anchor="middle" x="636" y="-571.6" font-family="Arial" font-size="10.50" fill="#102a43">FastAPI + future UI / BI entry points</text>
</g>
<!-- users&#45;&gt;experience -->
<g id="edge1" class="edge">
<title>users&#45;&gt;experience</title>
<path fill="none" stroke="#829ab1" stroke-width="1.35" d="M636,-635.94C636,-627.29 636,-616.92 636,-607.52"/>
<polygon fill="#829ab1" stroke="#829ab1" stroke-width="1.35" points="638.52,-607.45 636,-600.25 633.48,-607.45 638.52,-607.45"/>
</g>
<!-- decision -->
<g id="node3" class="node">
<title>decision</title>
<path fill="#eaf2ff" stroke="#2f6b9a" stroke-width="1.15" d="M740,-524C740,-524 532,-524 532,-524 526,-524 520,-518 520,-512 520,-512 520,-496 520,-496 520,-490 526,-484 532,-484 532,-484 740,-484 740,-484 746,-484 752,-490 752,-496 752,-496 752,-512 752,-512 752,-518 746,-524 740,-524"/>
<text text-anchor="middle" x="636" y="-507.6" font-family="Arial" font-size="10.50" fill="#102a43">Decision Services</text>
<text text-anchor="middle" x="636" y="-495.6" font-family="Arial" font-size="10.50" fill="#102a43">Orchestration • case context • final outcome</text>
</g>
<!-- experience&#45;&gt;decision -->
<g id="edge2" class="edge">
<title>experience&#45;&gt;decision</title>
<path fill="none" stroke="#829ab1" stroke-width="1.35" d="M636,-559.94C636,-551.29 636,-540.92 636,-531.52"/>
<polygon fill="#829ab1" stroke="#829ab1" stroke-width="1.35" points="638.52,-531.45 636,-524.25 633.48,-531.45 638.52,-531.45"/>
</g>
<!-- rules -->
<g id="node4" class="node">
<title>rules</title>
<path fill="#e8f6ee" stroke="#3a7d5d" stroke-width="1.15" d="M918.5,-448C918.5,-448 773.5,-448 773.5,-448 767.5,-448 761.5,-442 761.5,-436 761.5,-436 761.5,-420 761.5,-420 761.5,-414 767.5,-408 773.5,-408 773.5,-408 918.5,-408 918.5,-408 924.5,-408 930.5,-414 930.5,-420 930.5,-420 930.5,-436 930.5,-436 930.5,-442 924.5,-448 918.5,-448"/>
<text text-anchor="middle" x="846" y="-431.6" font-family="Arial" font-size="10.50" fill="#102a43">Rule Engine</text>
<text text-anchor="middle" x="846" y="-419.6" font-family="Arial" font-size="10.50" fill="#102a43">Policies • thresholds • eligibility</text>
</g>
<!-- decision&#45;&gt;rules -->
<g id="edge3" class="edge">
<title>decision&#45;&gt;rules</title>
<path fill="none" stroke="#829ab1" stroke-width="1.35" d="M690.08,-483.94C718.99,-473.75 754.71,-461.17 784.65,-450.62"/>
<polygon fill="#829ab1" stroke="#829ab1" stroke-width="1.35" points="785.79,-452.89 791.74,-448.12 784.11,-448.14 785.79,-452.89"/>
</g>
<!-- analytics -->
<g id="node5" class="node">
<title>analytics</title>
<path fill="#fff4d6" stroke="#9a7a22" stroke-width="1.15" d="M1143.5,-448C1143.5,-448 966.5,-448 966.5,-448 960.5,-448 954.5,-442 954.5,-436 954.5,-436 954.5,-420 954.5,-420 954.5,-414 960.5,-408 966.5,-408 966.5,-408 1143.5,-408 1143.5,-408 1149.5,-408 1155.5,-414 1155.5,-420 1155.5,-420 1155.5,-436 1155.5,-436 1155.5,-442 1149.5,-448 1143.5,-448"/>
<text text-anchor="middle" x="1055" y="-431.6" font-family="Arial" font-size="10.50" fill="#102a43">Analytics Services</text>
<text text-anchor="middle" x="1055" y="-419.6" font-family="Arial" font-size="10.50" fill="#102a43">Statistics • risk • sampling • sensitivity</text>
</g>
<!-- decision&#45;&gt;analytics -->
<g id="edge4" class="edge">
<title>decision&#45;&gt;analytics</title>
<path fill="none" stroke="#829ab1" stroke-width="1.35" d="M743.63,-483.99C806.08,-472.96 884.5,-459.11 947.02,-448.07"/>
<polygon fill="#829ab1" stroke="#829ab1" stroke-width="1.35" points="947.52,-450.54 954.17,-446.81 946.64,-445.58 947.52,-450.54"/>
</g>
<!-- ai -->
<g id="node6" class="node">
<title>ai</title>
<path fill="#f1e9ff" stroke="#6d4ea2" stroke-width="1.15" d="M273,-448C273,-448 49,-448 49,-448 43,-448 37,-442 37,-436 37,-436 37,-420 37,-420 37,-414 43,-408 49,-408 49,-408 273,-408 273,-408 279,-408 285,-414 285,-420 285,-420 285,-436 285,-436 285,-442 279,-448 273,-448"/>
<text text-anchor="middle" x="161" y="-431.6" font-family="Arial" font-size="10.50" fill="#102a43">AI / Model Services</text>
<text text-anchor="middle" x="161" y="-419.6" font-family="Arial" font-size="10.50" fill="#102a43">Recommendations • classification • explanation</text>
</g>
<!-- decision&#45;&gt;ai -->
<g id="edge5" class="edge">
<title>decision&#45;&gt;ai</title>
<path fill="none" stroke="#829ab1" stroke-width="1.35" d="M519.8,-484.9C450.36,-474.08 362.02,-460.32 290.37,-449.15"/>
<polygon fill="#829ab1" stroke="#829ab1" stroke-width="1.35" points="290.55,-446.63 283.04,-448.01 289.77,-451.61 290.55,-446.63"/>
</g>
<!-- evidence -->
<g id="node7" class="node">
<title>evidence</title>
<path fill="#e8f4fa" stroke="#347c98" stroke-width="1.15" d="M498.5,-448C498.5,-448 321.5,-448 321.5,-448 315.5,-448 309.5,-442 309.5,-436 309.5,-436 309.5,-420 309.5,-420 309.5,-414 315.5,-408 321.5,-408 321.5,-408 498.5,-408 498.5,-408 504.5,-408 510.5,-414 510.5,-420 510.5,-420 510.5,-436 510.5,-436 510.5,-442 504.5,-448 498.5,-448"/>
<text text-anchor="middle" x="410" y="-431.6" font-family="Arial" font-size="10.50" fill="#102a43">Evidence Services</text>
<text text-anchor="middle" x="410" y="-419.6" font-family="Arial" font-size="10.50" fill="#102a43">Decision context • artifacts • rationale</text>
</g>
<!-- decision&#45;&gt;evidence -->
<g id="edge6" class="edge">
<title>decision&#45;&gt;evidence</title>
<path fill="none" stroke="#829ab1" stroke-width="1.35" d="M577.8,-483.94C546.55,-473.71 507.93,-461.06 475.61,-450.48"/>
<polygon fill="#829ab1" stroke="#829ab1" stroke-width="1.35" points="476.02,-447.97 468.4,-448.12 474.45,-452.76 476.02,-447.97"/>
</g>
<!-- workflow -->
<g id="node8" class="node">
<title>workflow</title>
<path fill="#e6f7f7" stroke="#367d80" stroke-width="1.15" d="M725,-448C725,-448 547,-448 547,-448 541,-448 535,-442 535,-436 535,-436 535,-420 535,-420 535,-414 541,-408 547,-408 547,-408 725,-408 725,-408 731,-408 737,-414 737,-420 737,-420 737,-436 737,-436 737,-442 731,-448 725,-448"/>
<text text-anchor="middle" x="636" y="-431.6" font-family="Arial" font-size="10.50" fill="#102a43">Workflow Services</text>
<text text-anchor="middle" x="636" y="-419.6" font-family="Arial" font-size="10.50" fill="#102a43">Human review • approval • escalation</text>
</g>
<!-- decision&#45;&gt;workflow -->
<g id="edge7" class="edge">
<title>decision&#45;&gt;workflow</title>
<path fill="none" stroke="#829ab1" stroke-width="1.35" d="M636,-483.94C636,-475.29 636,-464.92 636,-455.52"/>
<polygon fill="#829ab1" stroke="#829ab1" stroke-width="1.35" points="638.52,-455.45 636,-448.25 633.48,-455.45 638.52,-455.45"/>
</g>
<!-- governance -->
<g id="node17" class="node">
<title>governance</title>
<path fill="#f7eef8" stroke="#815487" stroke-width="1.5" d="M1121.5,-52C1121.5,-52 934.5,-52 934.5,-52 928.5,-52 922.5,-46 922.5,-40 922.5,-40 922.5,-12 922.5,-12 922.5,-6 928.5,0 934.5,0 934.5,0 1121.5,0 1121.5,0 1127.5,0 1133.5,-6 1133.5,-12 1133.5,-12 1133.5,-40 1133.5,-40 1133.5,-46 1127.5,-52 1121.5,-52"/>
<text text-anchor="middle" x="1028" y="-35.6" font-family="Arial" font-size="10.50" fill="#102a43">Cross&#45;Cutting Governance</text>
<text text-anchor="middle" x="1028" y="-23.6" font-family="Arial" font-size="10.50" fill="#102a43">Security • authorization • responsible AI</text>
<text text-anchor="middle" x="1028" y="-11.6" font-family="Arial" font-size="10.50" fill="#102a43">retention • separation of duties</text>
</g>
<!-- decision&#45;&gt;governance -->
<g id="edge24" class="edge">
<title>decision&#45;&gt;governance</title>
<path fill="none" stroke="#829ab1" stroke-width="1.35" stroke-dasharray="5,2" d="M752.09,-491C908.63,-474.81 1168,-448 1168,-448 1168,-448 1193,-355 1193,-355 1193,-355 1193,-355 1193,-193 1193,-193 1099.22,-98.65 1053.06,-52.21"/>
</g>
<!-- monitor -->
<g id="node18" class="node">
<title>monitor</title>
<path fill="#e6f4ea" stroke="#357a4a" stroke-width="1.5" d="M277.5,-52C277.5,-52 108.5,-52 108.5,-52 102.5,-52 96.5,-46 96.5,-40 96.5,-40 96.5,-12 96.5,-12 96.5,-6 102.5,0 108.5,0 108.5,0 277.5,0 277.5,0 283.5,0 289.5,-6 289.5,-12 289.5,-12 289.5,-40 289.5,-40 289.5,-46 283.5,-52 277.5,-52"/>
<text text-anchor="middle" x="193" y="-35.6" font-family="Arial" font-size="10.50" fill="#102a43">Observability &amp; Decision Monitoring</text>
<text text-anchor="middle" x="193" y="-23.6" font-family="Arial" font-size="10.50" fill="#102a43">Logs • metrics • traces • alerts</text>
<text text-anchor="middle" x="193" y="-11.6" font-family="Arial" font-size="10.50" fill="#102a43">decision quality • drift • trends</text>
</g>
<!-- decision&#45;&gt;monitor -->
<g id="edge27" class="edge">
<title>decision&#45;&gt;monitor</title>
<path fill="none" stroke="#829ab1" stroke-width="1.35" stroke-dasharray="5,2" d="M520,-492.56C342.79,-476.61 25,-448 25,-448 25,-448 0,-355 0,-355 0,-355 0,-355 0,-193 0,-193 109.7,-98.65 163.69,-52.21"/>
</g>
<!-- data_layer -->
<g id="node9" class="node">
<title>data_layer</title>
<path fill="#f6f8fa" stroke="#66788a" stroke-width="1.5" d="M690.5,-372C690.5,-372 581.5,-372 581.5,-372 575.5,-372 569.5,-366 569.5,-360 569.5,-360 569.5,-348 569.5,-348 569.5,-342 575.5,-336 581.5,-336 581.5,-336 690.5,-336 690.5,-336 696.5,-336 702.5,-342 702.5,-348 702.5,-348 702.5,-360 702.5,-360 702.5,-366 696.5,-372 690.5,-372"/>
<text text-anchor="middle" x="636" y="-351.6" font-family="Arial" font-size="10.50" fill="#102a43">Data &amp; Evidence Layer</text>
</g>
<!-- rules&#45;&gt;data_layer -->
<g id="edge8" class="edge">
<title>rules&#45;&gt;data_layer</title>
<path fill="none" stroke="#829ab1" stroke-width="1.35" d="M790.55,-407.99C760.4,-397.65 723.18,-384.89 692.82,-374.48"/>
<polygon fill="#829ab1" stroke="#829ab1" stroke-width="1.35" points="693.29,-371.98 685.66,-372.03 691.65,-376.74 693.29,-371.98"/>
</g>
<!-- analytics&#45;&gt;data_layer -->
<g id="edge9" class="edge">
<title>analytics&#45;&gt;data_layer</title>
<path fill="none" stroke="#829ab1" stroke-width="1.35" d="M954.37,-409.71C879.15,-396.78 777.99,-379.4 710.07,-367.73"/>
<polygon fill="#829ab1" stroke="#829ab1" stroke-width="1.35" points="710.3,-365.21 702.78,-366.48 709.45,-370.18 710.3,-365.21"/>
</g>
<!-- ai&#45;&gt;data_layer -->
<g id="edge10" class="edge">
<title>ai&#45;&gt;data_layer</title>
<path fill="none" stroke="#829ab1" stroke-width="1.35" d="M285.18,-408.18C373.01,-394.86 487.85,-377.46 561.78,-366.25"/>
<polygon fill="#829ab1" stroke="#829ab1" stroke-width="1.35" points="562.51,-368.69 569.25,-365.12 561.75,-363.71 562.51,-368.69"/>
</g>
<!-- evidence&#45;&gt;data_layer -->
<g id="edge11" class="edge">
<title>evidence&#45;&gt;data_layer</title>
<path fill="none" stroke="#829ab1" stroke-width="1.35" d="M469.67,-407.99C502.39,-397.56 542.86,-384.67 575.68,-374.22"/>
<polygon fill="#829ab1" stroke="#829ab1" stroke-width="1.35" points="576.46,-376.61 582.56,-372.03 574.93,-371.81 576.46,-376.61"/>
</g>
<!-- workflow&#45;&gt;data_layer -->
<g id="edge12" class="edge">
<title>workflow&#45;&gt;data_layer</title>
<path fill="none" stroke="#829ab1" stroke-width="1.35" d="M636,-407.71C636,-399.11 636,-388.89 636,-379.75"/>
<polygon fill="#829ab1" stroke="#829ab1" stroke-width="1.35" points="638.52,-379.58 636,-372.38 633.48,-379.58 638.52,-379.58"/>
</g>
<!-- postgres -->
<g id="node10" class="node">
<title>postgres</title>
<path fill="#f6f8fa" stroke="#66788a" stroke-width="1.15" d="M722,-300C722,-300 550,-300 550,-300 544,-300 538,-294 538,-288 538,-288 538,-260 538,-260 538,-254 544,-248 550,-248 550,-248 722,-248 722,-248 728,-248 734,-254 734,-260 734,-260 734,-288 734,-288 734,-294 728,-300 722,-300"/>
<text text-anchor="middle" x="636" y="-283.6" font-family="Arial" font-size="10.50" fill="#102a43">PostgreSQL</text>
<text text-anchor="middle" x="636" y="-271.6" font-family="Arial" font-size="10.50" fill="#102a43">Cases • rules • decisions • metadata</text>
<text text-anchor="middle" x="636" y="-259.6" font-family="Arial" font-size="10.50" fill="#102a43">audit relationships</text>
</g>
<!-- data_layer&#45;&gt;postgres -->
<g id="edge13" class="edge">
<title>data_layer&#45;&gt;postgres</title>
<path fill="none" stroke="#829ab1" stroke-width="1.35" d="M636,-335.69C636,-327.39 636,-317.17 636,-307.5"/>
<polygon fill="#829ab1" stroke="#829ab1" stroke-width="1.35" points="638.52,-307.46 636,-300.26 633.48,-307.46 638.52,-307.46"/>
</g>
<!-- s3 -->
<g id="node11" class="node">
<title>s3</title>
<path fill="#fff8e8" stroke="#a67c2d" stroke-width="1.15" d="M986.5,-294C986.5,-294 769.5,-294 769.5,-294 763.5,-294 757.5,-288 757.5,-282 757.5,-282 757.5,-266 757.5,-266 757.5,-260 763.5,-254 769.5,-254 769.5,-254 986.5,-254 986.5,-254 992.5,-254 998.5,-260 998.5,-266 998.5,-266 998.5,-282 998.5,-282 998.5,-288 992.5,-294 986.5,-294"/>
<text text-anchor="middle" x="878" y="-277.6" font-family="Arial" font-size="10.50" fill="#102a43">Amazon S3 / Evidence Store</text>
<text text-anchor="middle" x="878" y="-265.6" font-family="Arial" font-size="10.50" fill="#102a43">Datasets • model artifacts • generated reports</text>
</g>
<!-- data_layer&#45;&gt;s3 -->
<g id="edge14" class="edge">
<title>data_layer&#45;&gt;s3</title>
<path fill="none" stroke="#829ab1" stroke-width="1.35" d="M688.81,-335.98C724.94,-324.33 773.13,-308.8 811.82,-296.33"/>
<polygon fill="#829ab1" stroke="#829ab1" stroke-width="1.35" points="812.85,-298.65 818.93,-294.04 811.31,-293.85 812.85,-298.65"/>
</g>
<!-- audit -->
<g id="node12" class="node">
<title>audit</title>
<path fill="#f7eef8" stroke="#815487" stroke-width="1.15" d="M501.5,-294C501.5,-294 310.5,-294 310.5,-294 304.5,-294 298.5,-288 298.5,-282 298.5,-282 298.5,-266 298.5,-266 298.5,-260 304.5,-254 310.5,-254 310.5,-254 501.5,-254 501.5,-254 507.5,-254 513.5,-260 513.5,-266 513.5,-266 513.5,-282 513.5,-282 513.5,-288 507.5,-294 501.5,-294"/>
<text text-anchor="middle" x="406" y="-277.6" font-family="Arial" font-size="10.50" fill="#102a43">Audit &amp; History</text>
<text text-anchor="middle" x="406" y="-265.6" font-family="Arial" font-size="10.50" fill="#102a43">Versions • approvals • access • changes</text>
</g>
<!-- data_layer&#45;&gt;audit -->
<g id="edge15" class="edge">
<title>data_layer&#45;&gt;audit</title>
<path fill="none" stroke="#829ab1" stroke-width="1.35" d="M585.81,-335.98C551.61,-324.38 506.05,-308.93 469.35,-296.49"/>
<polygon fill="#829ab1" stroke="#829ab1" stroke-width="1.35" points="469.77,-293.96 462.14,-294.04 468.15,-298.74 469.77,-293.96"/>
</g>
<!-- data_layer&#45;&gt;governance -->
<g id="edge25" class="edge">
<title>data_layer&#45;&gt;governance</title>
<path fill="none" stroke="#829ab1" stroke-width="1.35" stroke-dasharray="5,2" d="M702.61,-343.59C810.37,-328.36 1011,-300 1011,-300 1011,-300 1022.22,-119.78 1026.43,-52.19"/>
</g>
<!-- data_layer&#45;&gt;monitor -->
<g id="edge28" class="edge">
<title>data_layer&#45;&gt;monitor</title>
<path fill="none" stroke="#829ab1" stroke-width="1.35" stroke-dasharray="5,2" d="M569.34,-342.91C467.79,-327.53 286,-300 286,-300 286,-300 215,-140 215,-140 215,-140 204.36,-85.37 197.88,-52.08"/>
</g>
<!-- integration_layer -->
<g id="node13" class="node">
<title>integration_layer</title>
<path fill="#ddebff" stroke="#245b8a" stroke-width="1.5" d="M702.5,-212C702.5,-212 569.5,-212 569.5,-212 563.5,-212 557.5,-206 557.5,-200 557.5,-200 557.5,-188 557.5,-188 557.5,-182 563.5,-176 569.5,-176 569.5,-176 702.5,-176 702.5,-176 708.5,-176 714.5,-182 714.5,-188 714.5,-188 714.5,-200 714.5,-200 714.5,-206 708.5,-212 702.5,-212"/>
<text text-anchor="middle" x="636" y="-191.6" font-family="Arial" font-size="10.50" fill="#102a43">Enterprise Integration Layer</text>
</g>
<!-- postgres&#45;&gt;integration_layer -->
<g id="edge16" class="edge">
<title>postgres&#45;&gt;integration_layer</title>
<path fill="none" stroke="#829ab1" stroke-width="1.35" d="M636,-247.89C636,-238.84 636,-228.65 636,-219.65"/>
<polygon fill="#829ab1" stroke="#829ab1" stroke-width="1.35" points="638.52,-219.61 636,-212.41 633.48,-219.61 638.52,-219.61"/>
</g>
<!-- s3&#45;&gt;integration_layer -->
<g id="edge17" class="edge">
<title>s3&#45;&gt;integration_layer</title>
<path fill="none" stroke="#829ab1" stroke-width="1.35" d="M818.8,-253.92C781.39,-241.86 733.2,-226.33 695.7,-214.24"/>
<polygon fill="#829ab1" stroke="#829ab1" stroke-width="1.35" points="696.45,-211.84 688.82,-212.03 694.9,-216.63 696.45,-211.84"/>
</g>
<!-- audit&#45;&gt;integration_layer -->
<g id="edge18" class="edge">
<title>audit&#45;&gt;integration_layer</title>
<path fill="none" stroke="#829ab1" stroke-width="1.35" d="M462.26,-253.92C497.67,-241.91 543.24,-226.46 578.82,-214.39"/>
<polygon fill="#829ab1" stroke="#829ab1" stroke-width="1.35" points="579.79,-216.72 585.8,-212.03 578.17,-211.95 579.79,-216.72"/>
</g>
<!-- aws -->
<g id="node14" class="node">
<title>aws</title>
<path fill="#fff4d6" stroke="#9a7a22" stroke-width="1.15" d="M512.5,-134C512.5,-134 267.5,-134 267.5,-134 261.5,-134 255.5,-128 255.5,-122 255.5,-122 255.5,-106 255.5,-106 255.5,-100 261.5,-94 267.5,-94 267.5,-94 512.5,-94 512.5,-94 518.5,-94 524.5,-100 524.5,-106 524.5,-106 524.5,-122 524.5,-122 524.5,-128 518.5,-134 512.5,-134"/>
<text text-anchor="middle" x="390" y="-117.6" font-family="Arial" font-size="10.50" fill="#102a43">AWS / SageMaker</text>
<text text-anchor="middle" x="390" y="-105.6" font-family="Arial" font-size="10.50" fill="#102a43">Train • evaluate • register • deploy • monitor models</text>
</g>
<!-- integration_layer&#45;&gt;aws -->
<g id="edge19" class="edge">
<title>integration_layer&#45;&gt;aws</title>
<path fill="none" stroke="#829ab1" stroke-width="1.35" d="M582.32,-175.98C545.59,-164.33 496.61,-148.8 457.27,-136.33"/>
<polygon fill="#829ab1" stroke="#829ab1" stroke-width="1.35" points="457.67,-133.81 450.04,-134.04 456.14,-138.62 457.67,-133.81"/>
</g>
<!-- power -->
<g id="node15" class="node">
<title>power</title>
<path fill="#eaf2ff" stroke="#2f6b9a" stroke-width="1.15" d="M711.5,-140C711.5,-140 560.5,-140 560.5,-140 554.5,-140 548.5,-134 548.5,-128 548.5,-128 548.5,-100 548.5,-100 548.5,-94 554.5,-88 560.5,-88 560.5,-88 711.5,-88 711.5,-88 717.5,-88 723.5,-94 723.5,-100 723.5,-100 723.5,-128 723.5,-128 723.5,-134 717.5,-140 711.5,-140"/>
<text text-anchor="middle" x="636" y="-123.6" font-family="Arial" font-size="10.50" fill="#102a43">Power Platform</text>
<text text-anchor="middle" x="636" y="-111.6" font-family="Arial" font-size="10.50" fill="#102a43">Power BI • Power Automate</text>
<text text-anchor="middle" x="636" y="-99.6" font-family="Arial" font-size="10.50" fill="#102a43">SQL / DAX • approval workflows</text>
</g>
<!-- integration_layer&#45;&gt;power -->
<g id="edge20" class="edge">
<title>integration_layer&#45;&gt;power</title>
<path fill="none" stroke="#829ab1" stroke-width="1.35" d="M636,-175.69C636,-167.39 636,-157.17 636,-147.5"/>
<polygon fill="#829ab1" stroke="#829ab1" stroke-width="1.35" points="638.52,-147.46 636,-140.26 633.48,-147.46 638.52,-147.46"/>
</g>
<!-- collab -->
<g id="node16" class="node">
<title>collab</title>
<path fill="#e8f6ee" stroke="#3a7d5d" stroke-width="1.15" d="M954,-134C954,-134 760,-134 760,-134 754,-134 748,-128 748,-122 748,-122 748,-106 748,-106 748,-100 754,-94 760,-94 760,-94 954,-94 954,-94 960,-94 966,-100 966,-106 966,-106 966,-122 966,-122 966,-128 960,-134 954,-134"/>
<text text-anchor="middle" x="857" y="-117.6" font-family="Arial" font-size="10.50" fill="#102a43">Collaboration &amp; Operations</text>
<text text-anchor="middle" x="857" y="-105.6" font-family="Arial" font-size="10.50" fill="#102a43">SharePoint • ServiceNow • JIRA • GitHub</text>
</g>
<!-- integration_layer&#45;&gt;collab -->
<g id="edge21" class="edge">
<title>integration_layer&#45;&gt;collab</title>
<path fill="none" stroke="#829ab1" stroke-width="1.35" d="M684.23,-175.98C717.09,-164.38 760.86,-148.93 796.13,-136.49"/>
<polygon fill="#829ab1" stroke="#829ab1" stroke-width="1.35" points="797.11,-138.81 803.06,-134.04 795.43,-134.06 797.11,-138.81"/>
</g>
<!-- integration_layer&#45;&gt;governance -->
<g id="edge26" class="edge">
<title>integration_layer&#45;&gt;governance</title>
<path fill="none" stroke="#829ab1" stroke-width="1.35" stroke-dasharray="5,2" d="M714.89,-180.77C815.89,-165.12 978,-140 978,-140 978,-140 1002.17,-85.37 1016.9,-52.08"/>
</g>
<!-- integration_layer&#45;&gt;monitor -->
<g id="edge29" class="edge">
<title>integration_layer&#45;&gt;monitor</title>
<path fill="none" stroke="#829ab1" stroke-width="1.35" stroke-dasharray="5,2" d="M557.42,-182.4C442.73,-166.94 243,-140 243,-140 243,-140 218.83,-85.37 204.1,-52.08"/>
</g>
<!-- collab&#45;&gt;governance -->
<!-- collab&#45;&gt;monitor -->
</g>
</svg>
